HIERARCHY
ROOT Root
{
  OFFSET 0.0 0.0 0.0
  CHANNELS 6 Xposition Yposition Zposition Zrotation Yrotation Xrotation
  JOINT Hips
  {
    OFFSET 0.0 100.0 0.0
    CHANNELS 6 Xposition Yposition Zposition Zrotation Yrotation Xrotation
    JOINT Spine1
    {
      OFFSET 5.003913 -0.037094 -0.013727
      CHANNELS 3 Zrotation Yrotation Xrotation
      JOINT Spine2
      {
        OFFSET 7.125363 -1e-06 0.0
        CHANNELS 3 Zrotation Yrotation Xrotation
        JOINT Chest
        {
          OFFSET 7.594027 1e-06 0.0
          CHANNELS 3 Zrotation Yrotation Xrotation
          JOINT Neck1
          {
            OFFSET 26.313086 -0.460272 -0.181672
            CHANNELS 3 Zrotation Yrotation Xrotation
            JOINT Neck2
            {
              OFFSET 8.045911 0.0 0.0
              CHANNELS 3 Zrotation Yrotation Xrotation
              JOINT Head
              {
                OFFSET 6.432774 0.0 0.0
                CHANNELS 3 Zrotation Yrotation Xrotation
                JOINT HeadEnd
                {
                  OFFSET 16.169773 0.06451 0.00362
                  CHANNELS 3 Zrotation Yrotation Xrotation
                }
                JOINT Jaw
                {
                  OFFSET 0.108741 3.12938 0.002639
                  CHANNELS 3 Zrotation Yrotation Xrotation
                }
                JOINT LeftEye
                {
                  OFFSET 4.45173 8.166359 3.206392
                  CHANNELS 3 Zrotation Yrotation Xrotation
                }
                JOINT RightEye
                {
                  OFFSET 4.436895 8.135758 -3.222429
                  CHANNELS 3 Zrotation Yrotation Xrotation
                }
              }
            }
          }
          JOINT LeftShoulder
          {
            OFFSET 23.218927 5.195579 1.621656
            CHANNELS 3 Zrotation Yrotation Xrotation
            JOINT LeftArm
            {
              OFFSET 15.902118 2e-06 -2e-06
              CHANNELS 3 Zrotation Yrotation Xrotation
              JOINT LeftForeArm
              {
                OFFSET 28.739307 0.0 -1e-06
                CHANNELS 3 Zrotation Yrotation Xrotation
                JOINT LeftHand
                {
                  OFFSET 27.093981 -4e-06 0.0
                  CHANNELS 3 Zrotation Yrotation Xrotation
                  JOINT LeftHandThumb1
                  {
                    OFFSET 2.276781 3.380274 0.83384
                    CHANNELS 3 Zrotation Yrotation Xrotation
                    JOINT LeftHandThumb2
                    {
                      OFFSET 4.705309 -1e-06 -1e-06
                      CHANNELS 3 Zrotation Yrotation Xrotation
                      JOINT LeftHandThumb3
                      {
                        OFFSET 2.798515 0.0 3e-06
                        CHANNELS 3 Zrotation Yrotation Xrotation
                        JOINT LeftHandThumbEnd
                        {
                          OFFSET 3.180793 4e-06 -4e-06
                          CHANNELS 3 Zrotation Yrotation Xrotation
                        }
                      }
                    }
                  }
                  JOINT LeftHandIndex1
                  {
                    OFFSET 3.247786 2.352677 0.137192
                    CHANNELS 3 Zrotation Yrotation Xrotation
                    JOINT LeftHandIndex2
                    {
                      OFFSET 6.367095 1e-06 0.0
                      CHANNELS 3 Zrotation Yrotation Xrotation
                      JOINT LeftHandIndex3
                      {
                        OFFSET 3.662364 0.0 0.0
                        CHANNELS 3 Zrotation Yrotation Xrotation
                        JOINT LeftHandIndex4
                        {
                          OFFSET 2.329242 4e-06 -4e-06
                          CHANNELS 3 Zrotation Yrotation Xrotation
                          JOINT LeftHandIndexEnd
                          {
                            OFFSET 2.767823 1e-06 0.0
                            CHANNELS 3 Zrotation Yrotation Xrotation
                          }
                        }
                      }
                    }
                  }
                  JOINT LeftHandMiddle1
                  {
                    OFFSET 3.163612 0.945023 -0.406112
                    CHANNELS 3 Zrotation Yrotation Xrotation
                    JOINT LeftHandMiddle2
                    {
                      OFFSET 6.276789 3e-06 0.0
                      CHANNELS 3 Zrotation Yrotation Xrotation
                      JOINT LeftHandMiddle3
                      {
                        OFFSET 4.35652 -1e-06 4e-06
                        CHANNELS 3 Zrotation Yrotation Xrotation
                        JOINT LeftHandMiddle4
                        {
                          OFFSET 2.996877 0.0 8e-06
                          CHANNELS 3 Zrotation Yrotation Xrotation
                          JOINT LeftHandMiddleEnd
                          {
                            OFFSET 2.323256 3e-06 -4e-06
                            CHANNELS 3 Zrotation Yrotation Xrotation
                          }
                        }
                      }
                    }
                  }
                  JOINT LeftHandRing1
                  {
                    OFFSET 2.882606 -0.309162 0.107445
                    CHANNELS 3 Zrotation Yrotation Xrotation
                    JOINT LeftHandRing2
                    {
                      OFFSET 6.033198 0.0 4e-06
                      CHANNELS 3 Zrotation Yrotation Xrotation
                      JOINT LeftHandRing3
                      {
                        OFFSET 4.350578 3e-06 0.0
                        CHANNELS 3 Zrotation Yrotation Xrotation
                        JOINT LeftHandRing4
                        {
                          OFFSET 2.651321 2e-06 -7e-06
                          CHANNELS 3 Zrotation Yrotation Xrotation
                          JOINT LeftHandRingEnd
                          {
                            OFFSET 1.937663 1e-06 -4e-06
                            CHANNELS 3 Zrotation Yrotation Xrotation
                          }
                        }
                      }
                    }
                  }
                  JOINT LeftHandPinky1
                  {
                    OFFSET 2.865315 -1.525436 0.575687
                    CHANNELS 3 Zrotation Yrotation Xrotation
                    JOINT LeftHandPinky2
                    {
                      OFFSET 5.54936 1e-06 -8e-06
                      CHANNELS 3 Zrotation Yrotation Xrotation
                      JOINT LeftHandPinky3
                      {
                        OFFSET 3.070974 0.0 -4e-06
                        CHANNELS 3 Zrotation Yrotation Xrotation
                        JOINT LeftHandPinky4
                        {
                          OFFSET 1.549672 1e-06 0.0
                          CHANNELS 3 Zrotation Yrotation Xrotation
                          JOINT LeftHandPinkyEnd
                          {
                            OFFSET 1.952123 0.0 0.0
                            CHANNELS 3 Zrotation Yrotation Xrotation
                          }
                        }
                      }
                    }
                  }
                }
              }
            }
          }
          JOINT RightShoulder
          {
            OFFSET 23.161716 5.296122 -1.380114
            CHANNELS 3 Zrotation Yrotation Xrotation
            JOINT RightArm
            {
              OFFSET -16.027195 -2e-06 1.1e-05
              CHANNELS 3 Zrotation Yrotation Xrotation
              JOINT RightForeArm
              {
                OFFSET -28.736639 4e-06 2e-06
                CHANNELS 3 Zrotation Yrotation Xrotation
                JOINT RightHand
                {
                  OFFSET -27.133619 6e-06 0.0
                  CHANNELS 3 Zrotation Yrotation Xrotation
                  JOINT RightHandThumb1
                  {
                    OFFSET -2.274328 -3.351035 -0.83067
                    CHANNELS 3 Zrotation Yrotation Xrotation
                    JOINT RightHandThumb2
                    {
                      OFFSET -4.703594 -3e-06 2e-06
                      CHANNELS 3 Zrotation Yrotation Xrotation
                      JOINT RightHandThumb3
                      {
                        OFFSET -2.794935 -4e-06 -3e-06
                        CHANNELS 3 Zrotation Yrotation Xrotation
                        JOINT RightHandThumbEnd
                        {
                          OFFSET -3.183852 4e-06 1e-06
                          CHANNELS 3 Zrotation Yrotation Xrotation
                        }
                      }
                    }
                  }
                  JOINT RightHandIndex1
                  {
                    OFFSET -3.253496 -2.33755 -0.127667
                    CHANNELS 3 Zrotation Yrotation Xrotation
                    JOINT RightHandIndex2
                    {
                      OFFSET -6.344434 0.0 0.0
                      CHANNELS 3 Zrotation Yrotation Xrotation
                      JOINT RightHandIndex3
                      {
                        OFFSET -3.654871 0.0 -8e-06
                        CHANNELS 3 Zrotation Yrotation Xrotation
                        JOINT RightHandIndex4
                        {
                          OFFSET -2.327586 -1e-06 0.0
                          CHANNELS 3 Zrotation Yrotation Xrotation
                          JOINT RightHandIndexEnd
                          {
                            OFFSET -2.770001 3e-06 8e-06
                            CHANNELS 3 Zrotation Yrotation Xrotation
                          }
                        }
                      }
                    }
                  }
                  JOINT RightHandMiddle1
                  {
                    OFFSET -3.168223 -0.944764 0.411762
                    CHANNELS 3 Zrotation Yrotation Xrotation
                    JOINT RightHandMiddle2
                    {
                      OFFSET -6.266691 -1e-06 -4e-06
                      CHANNELS 3 Zrotation Yrotation Xrotation
                      JOINT RightHandMiddle3
                      {
                        OFFSET -4.348901 0.0 0.0
                        CHANNELS 3 Zrotation Yrotation Xrotation
                        JOINT RightHandMiddle4
                        {
                          OFFSET -3.00024 2e-06 -4e-06
                          CHANNELS 3 Zrotation Yrotation Xrotation
                          JOINT RightHandMiddleEnd
                          {
                            OFFSET -2.321477 -4e-06 -4e-06
                            CHANNELS 3 Zrotation Yrotation Xrotation
                          }
                        }
                      }
                    }
                  }
                  JOINT RightHandRing1
                  {
                    OFFSET -2.885654 0.293261 -0.119232
                    CHANNELS 3 Zrotation Yrotation Xrotation
                    JOINT RightHandRing2
                    {
                      OFFSET -6.032835 -1e-06 -4e-06
                      CHANNELS 3 Zrotation Yrotation Xrotation
                      JOINT RightHandRing3
                      {
                        OFFSET -4.33881 0.0 -4e-06
                        CHANNELS 3 Zrotation Yrotation Xrotation
                        JOINT RightHandRing4
                        {
                          OFFSET -2.654903 -4e-06 -4e-06
                          CHANNELS 3 Zrotation Yrotation Xrotation
                          JOINT RightHandRingEnd
                          {
                            OFFSET -1.935122 0.0 4e-06
                            CHANNELS 3 Zrotation Yrotation Xrotation
                          }
                        }
                      }
                    }
                  }
                  JOINT RightHandPinky1
                  {
                    OFFSET -2.866241 1.503904 -0.60527
                    CHANNELS 3 Zrotation Yrotation Xrotation
                    JOINT RightHandPinky2
                    {
                      OFFSET -5.553177 -2e-06 0.0
                      CHANNELS 3 Zrotation Yrotation Xrotation
                      JOINT RightHandPinky3
                      {
                        OFFSET -3.062664 -1e-06 -4e-06
                        CHANNELS 3 Zrotation Yrotation Xrotation
                        JOINT RightHandPinky4
                        {
                          OFFSET -1.546529 2e-06 4e-06
                          CHANNELS 3 Zrotation Yrotation Xrotation
                          JOINT RightHandPinkyEnd
                          {
                            OFFSET -1.952341 0.0 -4e-06
                            CHANNELS 3 Zrotation Yrotation Xrotation
                          }
                        }
                      }
                    }
                  }
                }
              }
            }
          }
        }
      }
    }
    JOINT LeftLeg
    {
      OFFSET -8.443107 2.567604 10.043214
      CHANNELS 3 Zrotation Yrotation Xrotation
      JOINT LeftShin
      {
        OFFSET 43.229198 1e-06 -1e-06
        CHANNELS 3 Zrotation Yrotation Xrotation
        JOINT LeftFoot
        {
          OFFSET 42.298611 1e-06 1e-06
          CHANNELS 3 Zrotation Yrotation Xrotation
          JOINT LeftToeBase
          {
            OFFSET 14.165858 1e-06 0.0
            CHANNELS 3 Zrotation Yrotation Xrotation
            JOINT LeftToeEnd
            {
              OFFSET 6.7141 -0.234461 0.0
              CHANNELS 3 Zrotation Yrotation Xrotation
            }
          }
        }
      }
    }
    JOINT RightLeg
    {
      OFFSET -8.303923 2.592729 -10.047278
      CHANNELS 3 Zrotation Yrotation Xrotation
      JOINT RightShin
      {
        OFFSET -43.369682 0.0 1e-06
        CHANNELS 3 Zrotation Yrotation Xrotation
        JOINT RightFoot
        {
          OFFSET -42.260784 4e-06 2e-06
          CHANNELS 3 Zrotation Yrotation Xrotation
          JOINT RightToeBase
          {
            OFFSET -14.222245 -2e-06 -1e-06
            CHANNELS 3 Zrotation Yrotation Xrotation
            JOINT RightToeEnd
            {
              OFFSET -6.660062 0.232574 -2e-06
              CHANNELS 3 Zrotation Yrotation Xrotation
            }
          }
        }
      }
    }
  }
}
MOTION
Frames: 4
Frame Time: 0.03333333333333333
0.0 0.0 0.0 0.0 -0.0 0.0 -0.616051 24.238087 3.346758 51.187958 -87.077583 148.482758 0.073047 -5.107722 -0.961369 -8.808963 -3.010748 -1.30273 17.816721 -8.361861 -5.34653 1.304918 11.263031 6.035797 -2.511278 0.373202 -5.486131 -22.561001 4.329525 -6.999848 5e-06 -0.0 -0.0 -0.196618 0.18852 -0.066492 -0.139382 0.54464 0.000541 -0.153101 -0.180697 -0.119578 -35.250561 -76.474144 45.263035 91.213379 17.361362 -46.600201 106.579247 1.441972 -1.763362 -18.872459 16.040451 77.91568 17.636631 -26.322723 52.411179 -19.466648 -14.395594 29.410378 -1e-06 -8.774819 -2e-06 16.740498 -16.501289 6.192032 -0.609777 -1.795652 -3.889327 -4.807089 -11.046805 -2.937849 3e-06 -20.976011 1e-06 -5.01997 -25.033548 -4.031879 6e-06 0.0 -0.0 -10.634535 -5.686969 -3.565586 10.57327 -17.922945 -3.113898 3e-06 -13.821201 2e-06 -0.501778 -31.181488 -4.027015 -11.963732 -59.57692 8.295279 -13.982712 -7.150196 -2.875041 13.772727 -8.401489 -3.218239 0.347731 -34.21154 0.771655 -0.963029 -17.733366 2.62102 0.0 0.0 1e-06 -17.346416 -20.095209 -4.201779 21.757555 -1.638375 3.866428 0.0 -6.33882 2e-06 -1.69759 -22.591734 -6.194004 -0.0 -5e-06 -2e-06 125.614639 -70.867004 59.618896 52.739529 18.625019 -94.638947 82.172913 -0.652964 0.668878 0.096265 9.416237 51.270752 22.182117 -20.375896 49.933319 -16.701811 -16.743528 28.476528 -2e-06 -12.690601 -1e-06 16.699347 -17.633535 2.24793 -0.105919 -1.513856 -4.275881 -5.039039 -5.612871 -2.953556 4e-06 -11.020523 -1e-06 -6.1113 -15.89533 -3.84047 -0.0 1e-06 1e-06 -10.28337 -5.680288 -4.341838 11.028294 -11.302405 -2.372633 -1.38427 -14.23858 -6.32012 -0.625436 -26.924191 -3.8276 -4.336147 -48.689976 -4.217649 -13.708524 -7.363476 -3.720939 18.141146 -14.052739 -3.242673 5e-06 -18.78727 -1e-06 -0.429709 -8.456045 2.555502 -1e-06 2e-06 -0.0 -15.923536 -20.094482 -5.473583 30.41921 -7.190826 1.735926 -0.0 -8.162924 1e-06 -1.861901 -22.861469 -6.167942 -2e-06 -3e-06 -1e-06 106.997253 -38.365482 -15.692509 107.586929 -9.580503 5.798748 -49.463615 33.576229 9.460707 -10.534432 1.641941 3.227529 -0.999997 0.0 -1e-06 -21.589882 0.652208 108.852432 4.054039 58.353592 -89.294586 -118.528564 -28.846949 3.700053 -43.014324 1.211573 1.2611 -1.000002 -1e-06 -1e-06 
0.0 0.0 0.0 0.0 -0.0 0.0 -0.936865 22.768391 4.689824 51.627506 -86.798752 149.441422 -0.356714 -5.384536 -0.969616 -9.049502 -3.146374 -1.371763 17.982183 -8.920526 -5.613982 1.237016 12.605703 5.925663 -2.525839 0.237577 -5.755107 -22.952868 4.788965 -7.686344 6e-06 -0.0 -0.0 -0.213863 0.199834 -0.092869 -0.170157 0.532286 -0.027226 -0.145686 -0.144319 -0.151018 -34.431026 -77.082237 45.489109 91.9104 16.926661 -45.350956 107.746048 0.946593 -2.062148 -19.251478 15.254732 79.571457 17.636635 -26.322741 52.411198 -19.466656 -14.3956 29.410385 -2e-06 -8.774822 -2e-06 16.607355 -16.493906 6.291017 -0.609776 -1.795654 -3.889327 -4.80709 -11.046807 -2.937849 4e-06 -20.976015 2e-06 -5.019973 -25.033558 -4.031878 6e-06 2e-06 -0.0 -10.634537 -5.68697 -3.565586 10.573276 -17.922951 -3.113899 3e-06 -13.821209 2e-06 -0.501779 -31.181505 -4.027012 -11.843131 -59.753868 8.300263 -13.982716 -7.150197 -2.875041 13.772734 -8.401492 -3.218241 0.347733 -34.211544 0.77166 -0.963029 -17.733368 2.621022 -0.0 1e-06 1e-06 -17.34642 -20.095213 -4.201779 21.757566 -1.638378 3.866427 0.0 -6.338822 2e-06 -1.69759 -22.591743 -6.194005 1e-06 -7e-06 -1e-06 119.756073 -70.639801 66.161865 56.059052 16.820192 -93.239723 84.404892 -0.30534 0.354163 -2.383212 8.890598 52.228786 22.182116 -20.375891 49.933308 -16.701813 -16.743528 28.476524 -2e-06 -12.690603 -1e-06 16.938503 -17.436813 2.228948 -0.105919 -1.513856 -4.27588 -5.039043 -5.612872 -2.953555 6e-06 -11.020523 -2e-06 -6.111298 -15.895332 -3.84047 -0.0 -0.0 0.0 -10.283371 -5.680288 -4.341837 11.028296 -11.302406 -2.372633 -1.384268 -14.238583 -6.320121 -0.625441 -26.924191 -3.827601 -4.33883 -48.759285 -4.174013 -13.708527 -7.363477 -3.720937 18.141148 -14.052739 -3.242674 7e-06 -18.787271 -2e-06 -0.429713 -8.456043 2.555503 -0.0 -0.0 0.0 -15.923536 -20.094482 -5.473581 30.41921 -7.190824 1.735925 0.0 -8.162922 -2e-06 -1.861902 -22.861469 -6.167943 0.0 -3e-06 -2e-06 104.507545 -38.357708 -13.724074 110.973602 -8.497772 5.607723 -51.968861 30.50033 8.103261 -10.08218 1.740962 3.180199 -0.999998 -1e-06 -0.0 -19.168774 0.307491 105.469841 6.338006 55.504238 -85.20842 -117.002586 -28.911385 4.212673 -40.679909 1.139635 1.292133 -1.000002 -1e-06 -0.0 
0.0 0.0 0.0 0.0 -0.0 0.0 -1.365487 21.424639 6.000003 56.647667 -86.464653 145.867996 -0.885865 -5.804722 -0.936493 -9.343005 -3.344401 -1.561574 18.257139 -9.503999 -5.972619 1.665948 14.097104 5.85118 -2.571156 0.012774 -6.082782 -23.193495 4.826224 -8.279844 7e-06 -0.0 -0.0 -0.227286 0.207676 -0.11164 -0.27235 0.523042 -0.053722 -0.204142 -0.118258 -0.169094 -33.477345 -77.871727 45.639412 91.793678 16.267893 -43.488529 108.810905 0.829664 -2.133338 -19.71423 14.572885 80.314827 17.636631 -26.322739 52.411201 -19.466658 -14.395597 29.410389 -1e-06 -8.774821 -2e-06 16.621279 -16.443268 6.272612 -0.609776 -1.795654 -3.889328 -4.807089 -11.046815 -2.93785 3e-06 -20.976021 0.0 -5.019972 -25.033571 -4.031879 5e-06 1e-06 -0.0 -10.634534 -5.686972 -3.565588 10.573272 -17.922955 -3.113899 2e-06 -13.821212 1e-06 -0.501778 -31.181511 -4.027017 -11.8372 -59.954109 8.488267 -13.982716 -7.150199 -2.875042 13.772731 -8.401495 -3.21824 0.347732 -34.211559 0.771656 -0.963029 -17.733374 2.621019 -0.0 0.0 -0.0 -17.346424 -20.095224 -4.201779 21.757559 -1.638376 3.866428 1e-06 -6.338824 1e-06 -1.697591 -22.591753 -6.194006 -0.0 -5e-06 -2e-06 114.923233 -69.991287 71.822258 59.91938 14.455433 -92.437683 86.910378 -0.332224 -0.034768 -4.743527 9.083793 54.042488 22.182114 -20.375895 49.933327 -16.701815 -16.74353 28.476536 -2e-06 -12.690604 -0.0 17.169861 -17.225031 2.235185 -0.10592 -1.513856 -4.275882 -5.039042 -5.612873 -2.953557 3e-06 -11.020527 -2e-06 -6.1113 -15.895338 -3.840473 -0.0 -0.0 0.0 -10.283373 -5.68029 -4.34184 11.028295 -11.302404 -2.372633 -1.384269 -14.238583 -6.320123 -0.625439 -26.924189 -3.827603 -4.40303 -48.904617 -4.13342 -13.708526 -7.363478 -3.720941 18.141151 -14.052739 -3.242676 6e-06 -18.787271 -3e-06 -0.429713 -8.456043 2.555504 -0.0 1e-06 1e-06 -15.923539 -20.094486 -5.473586 30.419218 -7.190826 1.735926 1e-06 -8.162927 -1e-06 -1.861904 -22.861469 -6.167943 -0.0 -3e-06 -1e-06 101.920784 -38.312775 -11.771074 114.732796 -7.585273 5.369764 -54.636909 26.767853 6.367185 -9.951096 1.804905 3.219682 -0.999997 1e-06 -1e-06 -16.371576 0.049692 102.349663 7.802952 52.461239 -82.090309 -114.804352 -29.455151 4.793609 -38.882336 1.071755 1.299243 -1.000005 0.0 0.0 
0.0 0.0 0.0 0.0 -0.0 0.0 -1.768896 20.039345 7.209642 61.206284 -86.13279 142.492813 -1.579388 -6.265533 -0.845912 -9.617954 -3.57679 -1.804233 18.401243 -10.115591 -6.286701 2.588772 15.480158 5.826244 -2.651343 -0.278274 -6.576808 -23.281557 4.523947 -8.649787 5e-06 -0.0 0.0 -0.236504 0.249712 -0.139174 -0.340181 0.532126 -0.064275 -0.269317 -0.042857 -0.213317 -32.124168 -78.667557 45.225636 91.063278 15.300693 -41.875389 109.899544 0.671333 -2.168753 -20.273094 13.865598 80.468674 17.636633 -26.322737 52.411213 -19.466669 -14.395597 29.410398 -1e-06 -8.774822 -1e-06 16.643749 -16.465488 6.138219 -0.609776 -1.795655 -3.88933 -4.807091 -11.046813 -2.937852 4e-06 -20.976025 -1e-06 -5.019969 -25.033571 -4.031882 6e-06 2e-06 0.0 -10.634537 -5.686974 -3.565589 10.573275 -17.922958 -3.113903 3e-06 -13.821213 0.0 -0.501776 -31.181522 -4.027018 -11.64647 -60.129051 8.392483 -13.982716 -7.150201 -2.875043 13.772731 -8.401497 -3.218244 0.347735 -34.211563 0.771652 -0.963028 -17.733376 2.62102 -0.0 1e-06 -2e-06 -17.346422 -20.095226 -4.201784 21.757561 -1.638376 3.866428 -0.0 -6.338822 1e-06 -1.697589 -22.591751 -6.194009 0.0 -5e-06 -4e-06 111.264893 -68.98896 76.196426 64.170494 11.830275 -91.560333 88.942276 -0.092205 -0.092993 -6.719434 9.679041 56.326714 22.182114 -20.375896 49.933319 -16.701815 -16.74353 28.476534 -3e-06 -12.6906 0.0 17.1719 -17.359062 2.329059 -0.105919 -1.513856 -4.275882 -5.039042 -5.612872 -2.953557 3e-06 -11.020525 -2e-06 -6.111298 -15.895334 -3.84047 0.0 -1e-06 0.0 -10.283369 -5.680288 -4.341839 11.028294 -11.302405 -2.372633 -1.384269 -14.238581 -6.320121 -0.625437 -26.924185 -3.827603 -4.564122 -49.073151 -4.099714 -13.708526 -7.363477 -3.72094 18.141153 -14.052739 -3.242676 6e-06 -18.787271 -3e-06 -0.429712 -8.456046 2.555504 -0.0 -0.0 -1e-06 -15.923534 -20.094482 -5.473587 30.41921 -7.190827 1.735925 2e-06 -8.162924 -0.0 -1.861902 -22.861467 -6.167941 -0.0 -3e-06 -2e-06 99.095734 -38.454769 -9.564362 118.865753 -6.696103 4.97253 -58.402962 22.449562 4.557655 -10.229951 1.816236 3.289302 -0.999998 0.0 -1e-06 -13.550464 0.125949 99.804001 8.532077 49.245075 -80.225327 -113.138168 -30.380182 5.530986 -34.356155 0.927018 1.330376 -1.000003 1e-06 -0.0 
